# AST/ASF file generated using VICON BodyLanguage
# -----------------------------------------------
:version 1.10
:name VICON
:units
  mass 1.0
  length 0.45
  angle deg
:documentation
   .ast/.asf automatically generated from VICON data using
   VICON BodyBuilder and BodyLanguage model FoxedUp or BRILLIANT.MOD
:root
   order TX TY TZ RX RY RZ
   axis XYZ
   position 0 0 0  
   orientation 0 0 0 
:bonedata
  begin
     id 1 
     name lhipjoint
     direction 0.588788 -0.725889 0.355548 
     length 2.37778 
     axis 0 0 0  XYZ
  end
  begin
     id 2 
     name lfemur
     direction 0.34202 -0.939693 0  
     length 6.86393  
     axis 0 0 20  XYZ
    dof rx ry rz
    limits (-160.0 20.0)
           (-70.0 70.0)
           (-60.0 70.0)
  end
  begin
     id 3 
     name ltibia
     direction 0.34202 -0.939693 0   
     length 7.32851   
     axis 0 0 20   XYZ
    dof rx
    limits (-10.0 170.0)
  end
  begin
     id 4 
     name lfoot
     direction 0.0626533 -0.172138 0.983078   
     length 1.98929   
     axis -90 7.62852e-016 20   XYZ
    dof rx rz
    limits (-45.0 90.0)
           (-70.0 20.0)
  end
  begin
     id 5 
     name ltoes
     direction 1.53647e-011 -4.21734e-011 1   
     length 1.00479   
     axis -90 7.62852e-016 20   XYZ
    dof rx
    limits (-90.0 20.0)
  end
  begin
     id 6 
     name rhipjoint
     direction -0.59141 -0.724168 0.354705   
     length 2.38343  
     axis 0 0 0  XYZ 
  end
  begin
     id 7 
     name rfemur
     direction -0.34202 -0.939693 0   
     length 6.95589   
     axis 0 0 -20   XYZ
    dof rx ry rz
    limits (-160.0 20.0)
           (-70.0 70.0)
           (-70.0 60.0)
  end
  begin
     id 8 
     name rtibia
     direction -0.34202 -0.939693 0   
     length 7.32327   
     axis 0 0 -20   XYZ
    dof rx
    limits (-10.0 170.0)
 end
 begin
     id 9 
     name rfoot
     direction -0.0660461 -0.18146 0.981178   
     length 1.85272  
     axis -90 -7.62852e-016 -20   XYZ
    dof rx rz
    limits (-45.0 90.0)
           (-20.0 70.0)
  end
  begin
     id 10 
     name rtoes
     direction -1.53586e-011 -4.21988e-011 1   
     length 0.93746   
     axis -90 -7.62852e-016 -20   XYZ
    dof rx
    limits (-90.0 20.0)
  end
  begin
     id 11 
     name lowerback
     direction -0.0107982 0.991059 0.13299   
     length 1.98691   
     axis 0 0 0   XYZ
    dof rx ry rz
    limits (-20.0 45.0)
           (-30.0 30.0)
           (-30.0 30.0)
  end
  begin
     id 12 
     name upperback
     direction 0.0076296 0.999916 0.0104576   
     length 1.99501   
     axis 0 0 0   XYZ
    dof rx ry rz
    limits (-20.0 45.0)
           (-30.0 30.0)
           (-30.0 30.0)
  end
  begin
     id 13 
     name thorax
     direction 0.01176 0.998615 -0.0512909   
     length 2.03144   
     axis 0 0 0   XYZ
    dof rx ry rz
    limits (-20.0 45.0)
           (-30.0 30.0)
           (-30.0 30.0)
  end
  begin
     id 14 
     name lowerneck
     direction -0.0171909 0.999644 0.0204011   
     length 1.71818   
     axis 0 0 0   XYZ
    dof rx ry rz
    limits (-20.0 45.0)
           (-30.0 30.0)
           (-30.0 30.0)
  end
  begin
     id 15 
     name upperneck
     direction 0.0250902 0.997482 -0.0663316   
     length 1.66199   
     axis 0 0 0   XYZ
    dof rx ry rz
    limits (-20.0 45.0)
           (-30.0 30.0)
           (-30.0 30.0)
  end
  begin
     id 16
     name head
     direction 0.00881535 0.99956 -0.0283365  
     length 1.81545  
     axis 0 0 0   XYZ
    dof rx ry rz
    limits (-20.0 45.0)
           (-30.0 30.0)
           (-30.0 30.0)
  end
  begin
     id 17 
     name lclavicle
     direction 0.840411 0.486876 -0.238035  
     length 3.30409  
     axis 0 0 0   XYZ
    dof ry rz
    limits (-20.0 10.0)
           (0.0 20.0)
  end
  begin
     id 18 
     name lhumerus
     direction 1 -4.48977e-011 -5.16239e-027   
     length 4.62672   
     axis 180 -30 -90   XYZ
    dof rx ry rz
    limits (-60.0 90.0)
           (-90.0 90.0)
           (-90.0 90.0)
  end
  begin
     id 19
     name lradius
     direction 1 -4.48977e-011 -8.71171e-027   
     length 3.11018   
     axis 180 -30 -90   XYZ
    dof rx
    limits (-10.0 170.0)
  end
  begin
     id 20
     name lwrist
     direction 1 -4.48912e-011 -1.03764e-026   
     length 1.55509   
     axis 9.09556e-015 90 90   XYZ
    dof ry
    limits (-180.0 0.0)
 end
  begin
     id 21 
     name lhand
     direction 1 -4.49072e-011 -2.07528e-026   
     length 0.743834   
     axis 1.3242e-014 90 90   XYZ
    dof rx rz
    limits (-90.0 90.0)
           (-45.0 45.0)
  end
  begin
     id 22 
     name lfingers
     direction 1 -4.48909e-011 -4.15056e-026   
     length 0.599698   
     axis 2.64841e-014 90 90   XYZ
    dof rx
    limits (0.0 90.0)
  end
  begin
     id 23
     name lthumb
     direction 0.707107 -6.35013e-011 0.707107   
     length 0.86105   
     axis -90 45 2.85299e-015   XYZ
    dof rx rz
    limits (-45.0 45.0)
           (-45.0 45.0)
  end
  begin
     id 24 
     name rclavicle
     direction -0.835208 0.500237 -0.228452   
     length 3.2716  
     axis 0 0 0   XYZ 
    dof ry rz
    limits (-10.0 20.0)
           (-20.0 0.0)
  end
  begin
     id 25 
     name rhumerus
     direction -1 -4.48978e-011 -5.1953e-028  
     length 4.55919   
     axis 180 30 90   XYZ
    dof rx ry rz
    limits (-90.0 60.0)
           (-90.0 90.0)
           (-90.0 90.0)
  end
  begin
     id 26 
     name rradius
     direction -1 -4.48961e-011 -5.99546e-027   
     length 3.22748   
     axis 180 30 90   XYZ
    dof rx
    limits (-10.0 170.0)
  end
  begin
     id 27 
     name rwrist
     direction -1 -4.48986e-011 -1.03764e-026   
     length 1.61374   
     axis 9.09556e-015 -90 -90   XYZ
    dof ry
    limits (-180.0 0.0)
  end
  begin
     id 28
     name rhand
     direction -1 -4.4899e-011 -2.07528e-026   
     length 0.700882   
     axis 1.3242e-014 -90 -90   XYZ
    dof rx rz
    limits (-90.0 90.0)
           (-45.0 45.0)
  end
  begin
     id 29
     name rfingers
     direction -1 -4.48991e-011 -4.15056e-026   
     length 0.565069   
     axis 2.64841e-014 -90 -90   XYZ
    dof rx
    limits (0.0 90.0)
  end
  begin
     id 30
     name rthumb
     direction -0.707107 -6.34804e-011 0.707107   
     length 0.811329   
     axis -90 -45 -2.85299e-015   XYZ
    dof rx rz
    limits (-45.0 45.0)
           (-45.0 45.0)
  end
:hierarchy
  begin
    root lhipjoint rhipjoint lowerback
    lhipjoint lfemur
    lfemur ltibia
    ltibia lfoot
    lfoot ltoes
    rhipjoint rfemur
    rfemur rtibia
    rtibia rfoot
    rfoot rtoes
    lowerback upperback
    upperback thorax
    thorax lowerneck lclavicle rclavicle
    lowerneck upperneck
    upperneck head
    lclavicle lhumerus
    lhumerus lradius
    lradius lwrist
    lwrist lhand lthumb
    lhand lfingers
    rclavicle rhumerus
    rhumerus rradius
    rradius rwrist
    rwrist rhand rthumb
    rhand rfingers
  end

#!OML:ASF F:\VICON\USERDATA\INSTALL\SteveWalk\SteveWalk.ASF
:FULLY-SPECIFIED
:DEGREES
33
root -0.418358 16.0059 -35.6562 19.2354 -10.1004 -1.45812
lowerback -17.0034 3.41629 0.487906
upperback -5.38548 4.37327 0.443933
thorax 3.75229 2.15742 1.05806
lowerneck -1.65475 -0.995923 0.931862
upperneck 5.84928 -1.23354 -2.38856
head 2.09295 -0.65412 -0.940154
rclavicle 2.4011e-014 2.5842e-015
rhumerus -14.5536 10.7265 -83.7929
rradius 59.3496
rwrist -17.3416
rhand -17.768 -32.8808
rfingers 7.12502
rthumb 8.49425 -62.69
lclavicle 2.4011e-014 2.5842e-015
lhumerus -67.8262 30.413 42.7701
lradius 11.8358
lwrist -36.2406
lhand -12.3322 -15.4944
lfingers 7.12502
lthumb 13.7369 14.0321
rfemur -2.22046 -6.61133 20.5181
rtibia 20.003
rfoot -24.6452 15.237
rtoes -15.1172
lfemur -49.6502 9.52267 -23.211
ltibia 9.57924
lfoot -8.20915 0.574247
ltoes -12.624
34
root -0.411992 15.9577 -35.3844 18.3891 -8.65329 -0.817477
lowerback -16.701 2.84396 0.00639397
upperback -5.01758 3.71345 0.303662
thorax 3.96857 1.83063 1.04708
lowerneck -2.22452 -1.04907 0.935685
upperneck 6.05601 -1.30846 -2.30421
head 2.26273 -0.693086 -0.924043
rclavicle 2.43201e-015 -7.95139e-016
rhumerus -14.4034 10.641 -83.5958
rradius 59.885
rwrist -17.0732
rhand -17.769 -32.6122
rfingers 7.12502
rthumb 8.49326 -62.4214
lclavicle 2.43201e-015 -7.95139e-016
lhumerus -68.7552 30.9562 40.9508
lradius 11.7478
lwrist -36.749
lhand -12.305 -15.5123
lfingers 7.12502
lthumb 13.763 14.0125
rfemur -0.0181082 -6.81628 19.993
rtibia 19.8459
rfoot -24.4113 14.5056
rtoes -14.5215
lfemur -48.9416 7.82618 -23.1838
ltibia 10.0711
lfoot -8.8558 0.203971
ltoes -11.3781
35
root -0.401054 15.9163 -35.1318 18.3561 -8.32046 -0.650729
lowerback -16.9201 2.69597 -0.160899
upperback -4.81322 3.55339 0.177464
thorax 4.30227 1.74776 0.995297
lowerneck -2.55596 -1.06052 0.958002
upperneck 5.65104 -1.33993 -2.17268
head 2.1894 -0.705054 -0.886035
rclavicle -9.61621e-015 -8.15017e-015
rhumerus -14.199 10.5337 -83.4974
rradius 60.3412
rwrist -16.7403
rhand -17.7358 -32.2771
rfingers 7.12502
rthumb 8.52535 -62.085
lclavicle -9.61621e-015 -8.15017e-015
lhumerus -69.8978 31.7658 38.6619
lradius 11.3866
lwrist -38.427
lhand -13.3937 -16.2412
lfingers 7.12502
lthumb 12.7137 13.3517
rfemur 0.980034 -6.49174 19.6312
rtibia 19.8976
rfoot -23.5845 14.978
rtoes -16.3911
lfemur -49.0147 6.05436 -22.0843
ltibia 11.2203
lfoot -9.04542 1.41511
ltoes -9.30993
36
root -0.399191 15.8808 -34.8767 18.3205 -8.12607 -0.474491
lowerback -16.9932 2.58442 -0.474141
upperback -4.79429 3.46675 0.048952
thorax 4.35224 1.70333 1.02301
lowerneck -2.76001 -1.02815 0.847689
upperneck 5.54512 -1.31479 -1.79803
head 2.19374 -0.685504 -0.748463
rclavicle -4.22697e-014 -1.8487e-014
rhumerus -14.4029 10.4359 -83.498
rradius 60.7932
rwrist -16.6147
rhand -17.7432 -31.984
rfingers 7.12502
rthumb 8.51819 -61.7922
lclavicle -4.22697e-014 -1.8487e-014
lhumerus -71.3207 32.3315 36.025
lradius 11.0466
lwrist -40.4657
lhand -14.017 -16.9383
lfingers 7.12502
lthumb 12.1128 12.691
rfemur 1.87687 -6.01245 19.2969
rtibia 19.9709
rfoot -22.4042 15.2089
rtoes -19.4837
lfemur -49.3066 4.70385 -21.3171
ltibia 13.0841
lfoot -9.24611 2.00533
ltoes -4.15304
37
root -0.400408 15.8527 -34.6181 18.2837 -8.14215 -0.272487
lowerback -17.026 2.58799 -0.92528
upperback -4.86879 3.5556 -0.103658
thorax 4.2714 1.74664 1.13298
lowerneck -3.03559 -1.07885 0.867824
upperneck 5.86184 -1.39411 -1.58391
head 2.34811 -0.720266 -0.69185
rclavicle -2.49615e-014 -1.16289e-014
rhumerus -15.058 10.2409 -83.4274
rradius 61.3221
rwrist -16.6263
rhand -18.0518 -31.9373
rfingers 7.12502
rthumb 8.22033 -61.7574
lclavicle -2.49615e-014 -1.16289e-014
lhumerus -71.7418 32.0802 35.2962
lradius 11.0237
lwrist -40.6117
lhand -14.0424 -16.666
lfingers 7.12502
lthumb 12.0882 12.9648
rfemur 2.55443 -5.43228 18.8794
rtibia 20.3001
rfoot -21.3062 15.3259
rtoes -23.0045
lfemur -49.7729 4.31686 -21.4855
ltibia 15.306
lfoot -8.19097 2.17118
ltoes -4.43424
38
root -0.396836 15.8299 -34.347 18.2782 -8.00544 -0.105491
lowerback -17.0463 2.61262 -1.28276
upperback -5.07573 3.65528 -0.277248
thorax 4.04937 1.7985 1.16513
lowerneck -2.86962 -1.259 1.05606
upperneck 5.89389 -1.64548 -1.55335
head 2.32387 -0.83988 -0.720076
rclavicle -9.12216e-015 -6.4605e-016
rhumerus -16.1648 9.85454 -83.4074
rradius 61.886
rwrist -16.628
rhand -18.3398 -32.0925
rfingers 7.12502
rthumb 7.94235 -61.9233
lclavicle -9.12216e-015 -6.4605e-016
lhumerus -71.7634 31.3269 35.3545
lradius 11.0513
lwrist -40.5576
lhand -14.4999 -15.9063
lfingers 7.12502
lthumb 11.6471 13.75
rfemur 3.20765 -4.88808 18.5338
rtibia 20.7509
rfoot -19.9717 15.5928
rtoes -20.0116
lfemur -50.3949 4.21491 -22.0351
ltibia 17.7587
lfoot -4.22209 2.14944
ltoes -15.2373
39
root -0.383657 15.8149 -34.0703 18.3086 -7.55223 0.272238
lowerback -16.8403 2.51446 -1.55992
upperback -5.38723 3.58146 -0.605886
thorax 3.6164 1.76858 0.940376
lowerneck -2.93001 -1.46405 1.2507
upperneck 6.03376 -1.93762 -1.42025
head 2.37642 -0.977362 -0.721544
rclavicle -3.28934e-014 1.99779e-014
rhumerus -17.3116 9.31022 -83.6238
rradius 62.3406
rwrist -16.6232
rhand -18.2044 -32.3566
rfingers 7.12502
rthumb 8.07306 -62.1824
lclavicle -3.28934e-014 1.99779e-014
lhumerus -72.8795 31.3766 32.8483
lradius 10.9225
lwrist -42.264
lhand -14.0946 -15.3966
lfingers 7.12502
lthumb 12.0379 14.2372
rfemur 3.71898 -4.5579 18.0778
rtibia 21.4157
rfoot -18.2828 15.9279
rtoes -18.9682
lfemur -51.1428 3.5516 -22.4553
ltibia 20.3391
lfoot -1.45562 1.52745
ltoes -19.8469
40
root -0.363954 15.8083 -33.7906 18.3917 -7.01926 0.861661
lowerback -18.2187 2.23617 -2.08179
upperback -4.73179 3.35824 -0.777027
thorax 5.02915 1.63052 1.09356
lowerneck -3.57663 -1.46991 1.04165
upperneck 5.78894 -1.9557 -1.18297
head 2.4172 -0.985787 -0.61619
rclavicle -4.025e-015 -2.15433e-014
rhumerus -17.117 8.97703 -83.4269
rradius 62.6232
rwrist -16.6416
rhand -17.9997 -32.2927
rfingers 7.12502
rthumb 8.27058 -62.1108
lclavicle -4.025e-015 -2.15433e-014
lhumerus -75.5882 34.0584 26.8269
lradius 10.3961
lwrist -47.8229
lhand -14.3675 -15.7061
lfingers 7.12502
lthumb 11.7747 13.9429
rfemur 3.87228 -4.57956 17.413
rtibia 22.3798
rfoot -16.2786 16.4893
rtoes -19.1813
lfemur -51.9331 2.55734 -22.7958
ltibia 22.9612
lfoot 0.230458 0.725255
ltoes -17.7122
41
root -0.350975 15.8003 -33.5143 18.4493 -6.69639 1.39377
lowerback -18.0898 2.1146 -2.72643
upperback -5.09534 3.31493 -0.981464
thorax 4.54877 1.61696 1.21446
lowerneck -3.60811 -1.46592 0.628618
upperneck 6.25264 -1.9578 -0.651493
head 2.58595 -0.979513 -0.380819
rclavicle 2.49686e-014 1.32192e-014
rhumerus -18.8331 8.45967 -83.4888
rradius 63.0882
rwrist -16.5932
rhand -18.3019 -31.8513
rfingers 7.12502
rthumb 7.97895 -61.6807
lclavicle 2.49686e-014 1.32192e-014
lhumerus -78.2593 34.7539 21.8769
lradius 10.0761
lwrist -52.0366
lhand -14.712 -15.6517
lfingers 7.12502
lthumb 11.4425 14.0161
rfemur 3.74074 -4.33038 16.8293
rtibia 23.7965
rfoot -14.1636 16.8765
rtoes -19.1203
lfemur -52.5977 1.74928 -23.0428
ltibia 25.5504
lfoot 0.794313 0.2094
ltoes -14.8811
